<?xml version="1.0" encoding="UTF-8"?><svg id="Layer_2" xmlns="http://www.w3.org/2000/svg" xmlns:xlink="http://www.w3.org/1999/xlink" viewBox="0 0 520 529.35"><defs><style>.cls-1{clip-path:url(#clippath);}.cls-2{fill:#606060;}.cls-2,.cls-3{stroke-width:0px;}.cls-3,.cls-4{fill:#d3d2d2;}</style><clipPath id="clippath"><circle class="cls-3" cx="260" cy="260" r="260"/></clipPath></defs><g id="Layer_1-2"><circle class="cls-4" cx="260" cy="260" r="260"/><g class="cls-1"><path class="cls-2" d="M68.32,507.3c153.72,31.53,248.79,27.19,393.61,0,0,0,5.94-74.2-15.27-94.94-21.21-20.74-103.53-44.57-103.53-44.57l-12.37-6.98c-3.37-1.9-7.01-3.36-10.81-4.36v-26.28c16.54-19.19,22.93-42.72,26.13-61.83.58.16,1.16.27,1.76.31,9.46.68,16.74-32.63,18.09-51.34,1.35-18.71.51-15.72-8.95-16.4-2.09-.15-1.91-4.67-3.86-3.46,0-27.9,10.62-66.27,3-83-5.43-11.91-28.04-13.45-39.13-20.39-8.83-5.53-11.07-14.07-7.09-22.84-31.88-10.2-94.02,22.7-94.02,22.7l-1.1-7.88-24.66,12.41c-15.31,16.7-22.02,22.54-25,45-1.07,8.11,9.59,54.64,9.28,61.96-8.2-.84-14.5-3.76-15.79,14.12-1.35,18.71,10.1,53.09,18.85,53.72,1.5.11,2.99-.24,4.42-.98,4.9,22.18,13.23,41.18,26.56,61.6v23c-4.91,1.41-9.54,3.55-13.67,6.36-3.05,2.07-6.84,4.66-11.54,7.89-121.35,39.25-114.92,65.88-114.92,65.88v70.29Z"/></g></g></svg>