<?xml version="1.0" encoding="UTF-8"?><svg id="Layer_2" xmlns="http://www.w3.org/2000/svg" xmlns:xlink="http://www.w3.org/1999/xlink" viewBox="0 0 520 529.44"><defs><style>.cls-1{clip-path:url(#clippath);}.cls-2{fill:#606060;}.cls-2,.cls-3{stroke-width:0px;}.cls-3,.cls-4{fill:#d3d2d2;}</style><clipPath id="clippath"><circle class="cls-3" cx="260" cy="260" r="260"/></clipPath></defs><g id="Layer_1-2"><circle class="cls-4" cx="260" cy="260" r="260"/><g class="cls-1"><path class="cls-2" d="M391.27,403.51c-38.92-12.97-57.17-19.02-67.14-28.39,14.61-16.29,24.88-40.86,30.68-57.62,52.52-55.28,25.6-107.39,6.24-132.38-2.09-12.99-6.66-26.37-13.85-39.2-25.06-44.7-72.32-65.83-105.56-47.19-1.81,1.02-3.53,2.14-5.18,3.35-9.38,3.64-14.22,8.95-25.32,18.12-64.17,9.39-110.71,160.7-51.85,205.11,4.75,13.32,11.95,30.34,21.55,44.35-17.22,21.5-37.1,20.31-93.66,38.84-64.12,21.01-53.8,98.81-53.8,98.81,172.24,30.94,285.49,28.05,421.25,0,0,0,14.14-77.97-63.36-103.79Z"/></g></g></svg>