<?xml version="1.0" encoding="UTF-8"?><svg id="Layer_2" xmlns="http://www.w3.org/2000/svg" xmlns:xlink="http://www.w3.org/1999/xlink" viewBox="0 0 534.27 545.77"><defs><style>.cls-1{clip-path:url(#clippath);}.cls-2{fill:#606060;}.cls-2,.cls-3{stroke-width:0px;}.cls-3,.cls-4{fill:#d3d2d2;}</style><clipPath id="clippath"><circle class="cls-3" cx="268.13" cy="260" r="260"/></clipPath></defs><g id="Layer_1-2"><circle class="cls-4" cx="268.13" cy="260" r="260"/><g class="cls-1"><path class="cls-2" d="M469.25,422.73c-113.47-8.1-139.71-48.12-144.99-84.36,35.46-2.7,52.32-2.62,70.54-16.32-30.67-34-25.33-83.51-20.89-123.38,4.43-39.87-4.73-123.5-98.5-120.81-92.34,2.66-107.13,61.59-105.38,146.69,1.37,66.58-13.04,86.02-27.22,97.49,20,8,37.22,15.09,71.93,17-6.35,24.5-18.91,71.37-132.33,81.43C-10.2,428.69.36,545.77.36,545.77h529.22s29.68-116.61-60.34-123.04Z"/></g></g></svg>