<?xml version="1.0" encoding="UTF-8"?><svg id="Layer_2" xmlns="http://www.w3.org/2000/svg" xmlns:xlink="http://www.w3.org/1999/xlink" viewBox="0 0 520 531.49"><defs><style>.cls-1{fill:#387f93;}.cls-1,.cls-2{stroke-width:0px;}.cls-3{clip-path:url(#clippath);}.cls-2,.cls-4{fill:#d3d2d2;}</style><clipPath id="clippath"><circle class="cls-2" cx="260" cy="260" r="260"/></clipPath></defs><g id="Layer_1-2"><circle class="cls-4" cx="260" cy="260" r="260"/><g class="cls-3"><path class="cls-1" d="M485.87,420.57c-39.15-28.69-128.82-44.36-128.82-44.36l-11.54-12.41c0-9.09-6.24-16.47-13.94-16.47h-4.5v-26.08c17.05-27.58,21.52-36.86,26.31-62.79,2.06,2.75,8.1-2.94,9-5.59,6-17.67,6.25-26.82,8.33-43.33,1.33-10.59-2-16.25-5-16.92-3.75-.83-5.38-.78-5.33-.75.06-1.96,10.32-50.48-3.67-75.33,6.04-.65-3-8-3.23-16.83-.07-2.53-1.96-4.61-4.48-4.92-9.37-1.14-22.44-14.4-29.63-16.91-11.68-10.44-43.45-17.04-68-12.67,0,0-80.67,5.33-86.67,51.33-4.89,1.85-1.3,78.61,3,85.33-6.62-1.87-19.19-1.38-11.68,15.33,6.82,15.19,16.1,49.41,22.38,48.08,1.64-.35,1.4,1.6,2.47-.33,8.85,23.92,11.8,34.21,29.19,58.14v24.23h-2.87c-6.7,0-12.13,6.42-12.13,14.33v13.74s-128.41,50.5-143.26,62.19c-14.85,11.69-4.25,59.97-4.25,59.97,150.02,53.25,278.25,37.6,453.5-4.17,0,0,2.18-6.7-1-45.77-.91-11.14-6.15-21.15-14.21-27.06Z"/></g></g></svg>