<?xml version="1.0" encoding="UTF-8"?><svg id="Layer_2" xmlns="http://www.w3.org/2000/svg" xmlns:xlink="http://www.w3.org/1999/xlink" viewBox="0 0 520 535.29"><defs><style>.cls-1{fill:#387f93;}.cls-1,.cls-2{stroke-width:0px;}.cls-3{clip-path:url(#clippath);}.cls-2,.cls-4{fill:#d3d2d2;}</style><clipPath id="clippath"><circle class="cls-2" cx="260" cy="260" r="260"/></clipPath></defs><g id="Layer_1-2"><circle class="cls-4" cx="260" cy="260" r="260"/><g class="cls-3"><path class="cls-1" d="M409.07,404.45c-86,4-93.13-57.65-94-69,25.26-1.33,80.77-8.39,98.19-31.09,0,0-37.2-38.75-52.81-143.27-11.78-36.17-22.71-65.62-84.12-84.12-29.44-7.57-54.12,5.12-54.12,17.74-10.94-2.52-28.32-9.32-45.14,18.44-16.82,27.76-21.87,99.27-21.87,99.27,0,0,1.78,76.46-30.28,97.58,20.63,21.16,60.24,23.01,88.17,23.46-4.4,20.59-9,71-112.29,72.24-62.55.75-51.81,101.38-51.81,101.38,136.91,30.19,244.52,44.42,425.75-.04,11.78-28.44,9.39-59.44-.65-79.58-6.42-12.87-51.63-23.62-65-23Z"/></g></g></svg>