<?xml version="1.0" encoding="UTF-8"?><svg id="Layer_2" xmlns="http://www.w3.org/2000/svg" xmlns:xlink="http://www.w3.org/1999/xlink" viewBox="0 0 520 520"><defs><style>.cls-1{fill:#387f93;}.cls-1,.cls-2{stroke-width:0px;}.cls-3{clip-path:url(#clippath);}.cls-2,.cls-4{fill:#d3d2d2;}</style><clipPath id="clippath"><circle class="cls-2" cx="260" cy="260" r="260"/></clipPath></defs><g id="Layer_1-2"><circle class="cls-4" cx="260" cy="260" r="260"/><g class="cls-3"><path class="cls-1" d="M411.19,414.71c-43.47-15.27-93.04-30.57-96.67-39.33-5.73-11.19-7.08-21.09-6-36,12.51,11.22,50,6.67,59.01-4.03,47.22-50.48,0-175.35,0-175.35,0,0-30.47-75.45-79.72-78.11-21.96-1.18-65.85,1.84-85.29,18.82-69.14,10.63-79.88,184.15-61.33,224,12.2,26.22,55,22.8,66.67,18,.37,10.1-1.53,27.37-6,36.67-2.67,7.33-56.91,24.11-124,44.67-68.83,21.09-56.93,94.21-56.93,94.21,181.22,10.88,297.02,8.59,459.59-5.54,0,0,12.88-69.12-69.33-98Z"/></g></g></svg>