<?xml version="1.0" encoding="UTF-8"?><svg id="Layer_2" xmlns="http://www.w3.org/2000/svg" viewBox="0 0 193.5 189.86"><defs><style>.cls-1{fill:#55821a;stroke-width:0px;}</style></defs><g id="Layer_1-2"><path class="cls-1" d="M193.46,93.89c-.03-.89-.7-1.63-1.57-1.76l-83.38-12.52v3.51c0,.35-.28.63-.63.63h-24.74c-.35,0-.63-.28-.63-.63v-3.12L1.62,92.13c-.88.13-1.55.87-1.58,1.76-.03.95-.04,1.9-.04,2.86,0,44.27,29.73,81.59,70.32,93.09l-.15-.07,46.92-31.17c1.16-.77,2.72-.03,2.86,1.35l2.95,29.75.22.15c40.61-11.48,70.37-48.82,70.37-93.11,0-.96-.01-1.91-.04-2.86ZM74.5,90.01h41c1.1,0,2,.9,2,2s-.9,2-2,2h-2.09l.2,2.05c.04.35-.13.7-.44.88l-36.25,22.5c-.65.4-1.49-.11-1.42-.87l2.06-24.57h-3.06c-1.1,0-2-.9-2-2s.9-2,2-2ZM117.17,137.48l-43.97,27.63c-.69.43-1.58-.11-1.51-.92l1.74-20.73c.03-.32.2-.6.47-.76l40.49-24.47c.62-.38,1.43.03,1.5.75l1.74,17.57c.04.37-.14.74-.46.94Z"/><path class="cls-1" d="M183.71,54.3C167.99,22.14,134.96,0,96.75,0S25.51,22.14,9.79,54.29c-.38.78.09,1.71.95,1.87l71.77,13.75v-3.37c0-.35.28-.63.63-.63h24.74c.35,0,.63.28.63.63v4.03l74.27-14.42c.85-.16,1.32-1.09.94-1.87ZM112.08,61.11h-31.94c-1.94,0-2.78-2.45-1.25-3.64l16.6-12.91v-11.46c0-.83.67-1.5,1.5-1.5h0c.83,0,1.5.67,1.5,1.5v11.38l14.93,13.06c1.41,1.24.54,3.57-1.34,3.57Z"/><path class="cls-1" d="M101,73.13c0-2.28-2.35-4.12-5.25-4.12s-5.25,1.85-5.25,4.12c0,.02,0,.04,0,.06,0,.01,0,.02,0,.04v6.01c0,.43.35.78.78.78h8.94c.43,0,.78-.35.78-.78v-6.01s0-.02,0-.04c0-.02,0-.04,0-.06Z"/></g></svg>